<?xml version="1.0" encoding="utf-8"?>
<!-- Generator: Adobe Illustrator 22.1.0, SVG Export Plug-In . SVG Version: 6.00 Build 0)  -->
<svg version="1.1" id="Layer_1" xmlns="http://www.w3.org/2000/svg" xmlns:xlink="http://www.w3.org/1999/xlink" x="0px" y="0px"
	 viewBox="0 0 490 444" style="enable-background:new 0 0 490 444;" xml:space="preserve">
<style type="text/css">
	.st0{fill:url(#SVGID_1_);}
</style>
<linearGradient id="SVGID_1_" gradientUnits="userSpaceOnUse" x1="70.716" y1="313.451" x2="341.3012" y2="42.8657" gradientTransform="matrix(0.9999 0 0 -0.9999 1.420856e-02 443.0348)">
	<stop  offset="0" style="stop-color:#021B79"/>
	<stop  offset="0.5363" style="stop-color:#187DE5"/>
	<stop  offset="1" style="stop-color:#0575E6"/>
</linearGradient>
<path class="st0" d="M483.8,236.7l-38,16c-0.7,0.3-1.4,0.7-2.1,1.3l-51.3,43.5l-0.9-2.2c-5-11.9-18.3-17.9-30.5-13.8l-5.6,1.9
	l-4.1-4.2l-19.6-32.6l22.5-102.8l11.6-5.8c7.1-3.6,11.5-11.1,11-19.1c-0.5-8-5.7-14.9-13.3-17.6l4.8-21.9c0.8-4.3-1.9-8.4-6.2-9.3
	c-4.2-0.9-8.4,1.7-9.5,5.9l-5.9,26.8l-61.7,30.9l-23.2-19.9l0.4-2c1.3-8.1-0.2-16.5-4.3-23.7c13.7-0.9,26.2-8.3,33.7-19.8
	c7.5-11.5,9.2-25.9,4.5-38.8l28.2-14.1c4-2,5.6-6.8,3.6-10.8c-2-4-6.8-5.6-10.8-3.6l-29.1,14.5c-15.4-18.1-42.4-20.7-61-5.8
	c-18.5,14.9-21.9,41.8-7.6,60.8c-2.4,0.5-4.7,1.2-6.9,2.1l1.1-6c0.6-3.4-0.1-7-2.2-9.8c-2-2.9-5.1-4.8-8.6-5.3L166.1,46
	c-11-1.7-21.2,5.7-23.1,16.7l-9.3,53l-10.2-2.2c-4.4-0.9-9-0.1-12.8,2.4c-3.8,2.5-6.4,6.4-7.3,10.8l-7.7,39.1
	c-0.9,4.5,0.1,9.2,2.7,12.9c2.6,3.8,6.7,6.3,11.2,7l19.5,3h0.1l45.1,6.1l-0.4,1.3c-3.8,11.2-0.9,23.5,7.5,31.8
	c0.3,0.3,0.6,0.4,0.8,0.7l18.8,53.3l-39,59.3l-20.1,23.8c-1.6,1.9-2.2,4.4-1.7,6.7c0.5,2.4,2,4.4,4.2,5.5l38.7,19.7l-17.3,10.4
	L0,428.1L2,444l167.4-21c1.1-0.1,2.2-0.5,3.1-1.1l106.9-64.6l56.1-20.7l55.6-20.5l5.8-2.1c0.9-0.3,1.7-0.8,2.4-1.4l53.8-45.6
	l36.9-15.5L483.8,236.7z M355.8,300.1l10.4-3.5c4.2-1.4,8.9,0.7,10.6,4.8l1.1,2.6l-39.4,14.5l-1.2,0.4l-6.5-15.8l13.1-8.7l3.7,3.7
	C349.8,300.3,353,301.1,355.8,300.1z M202,220.9c-4.6-0.4-8.7-2.9-11.3-6.8c-2.5-3.9-3.1-8.7-1.7-13l1.7-5h49.1l51.9,14.8l23.1,38.4
	l-4.2,19.1l-22.9-36.5c-1.3-2.1-3.6-3.5-6.1-3.8L202,220.9z M234.2,180.1h-39.8l3.7-22.5l2.6-0.2c13.4-1.2,26.6-4.7,38.9-10.3
	l0.4,0.3L234.2,180.1z M200.8,141.2l4.7-28.6c0.9,4.2,3.2,7.9,6.4,10.7l14.1,12.1C217.9,138.3,209.4,140.3,200.8,141.2z
	 M322.3,324.5l-8.3,3l3.3-15.2L322.3,324.5z M334.2,281.7l-7.2,4.8l-3.6,2.4l-0.6-1l4-18.5L334.2,281.7z M319.8,226.6l-16-26.6
	c-1-1.7-2.7-3-4.7-3.6l-49.1-14l4-22.8l15.2,13.1c6.1,5.3,14.8,6.3,22,2.7l44.6-22.3L319.8,226.6z M355.2,116.5
	c1-0.5,2.1-0.6,3.1-0.2c1,0.3,1.8,1.1,2.3,2c1,2,0.2,4.4-1.8,5.4l-74.7,37.4c-1.4,0.7-3.2,0.5-4.4-0.6l-33.5-28.9l-23.8-20.5
	c-1.2-1.1-1.7-2.7-1.2-4.3c0.5-1.5,1.9-2.6,3.5-2.7h0.3c1,0,1.9,0.3,2.6,1l55.3,47.6L355.2,116.5z M283,44.1c0,12-7.6,22.7-19,26.5
	c-11.4,3.8-23.9,0-31.2-9.6l49-24.5C282.5,39,282.9,41.6,283,44.1z M255,16.1c6.7,0,13.2,2.5,18.2,6.9l-46.1,23
	c0-0.6-0.2-1.2-0.2-1.9C227,28.7,239.5,16.1,255,16.1L255,16.1z M230.3,85.9c7.5,1.2,13.6,6.6,15.7,13.9l-8-6.9
	c-8.2-7.1-20.5-6.3-27.7,1.7C214.6,88,222.5,84.6,230.3,85.9z M111.4,168.9l7.7-39.1l-7.9-1.5l8.9,0.9l10.8,2.3l-7.1,40.3l-11.7-1.8
	L111.4,168.9z M158.8,65.4c0.4-2.3,2.6-3.9,5-3.6l33.9,5l-6.2,32.7v0.2l-13.1,79.5l-38.7-5.2L158.8,65.4z M217.5,280.2L202.2,237
	l28.6,2.6l6.5,42.6l-46.6,68.1l-11-6.8l37-56.2C218,285.2,218.3,282.6,217.5,280.2z M199.1,387.2l-38.5-19.6l9.5-11.2l18.7,11.5
	c0.6,0.4,1.3,0.7,2,0.9c0.7,0.2,1.4,0.3,2.2,0.3h0.9c7.3,0,13.6,4.9,15.5,11.9l-2.5,1.5L199.1,387.2z M273.2,342.6
	c-0.5,0.2-0.9,0.4-1.4,0.7l-48.5,29.3c-3.3-7.6-9.4-13.6-17-16.9l45.9-67.1c1.1-1.7,1.6-3.7,1.3-5.7l-6.4-41.8l29.1,2.6l29.4,47.1
	l-9.5,43.3L273.2,342.6z"/>
</svg>
