<?xml version="1.0" encoding="utf-8"?>
<!-- Generator: Adobe Illustrator 22.1.0, SVG Export Plug-In . SVG Version: 6.00 Build 0)  -->
<svg version="1.1" id="Layer_1" xmlns="http://www.w3.org/2000/svg" xmlns:xlink="http://www.w3.org/1999/xlink" x="0px" y="0px"
	 viewBox="0 0 479.8 480" style="enable-background:new 0 0 479.8 480;" xml:space="preserve">
<style type="text/css">
	.st0{fill:url(#SVGID_1_);}
</style>
<linearGradient id="SVGID_1_" gradientUnits="userSpaceOnUse" x1="75.4239" y1="377.7324" x2="406.8397" y2="46.3166" gradientTransform="matrix(0.9999 0 0 -0.9999 3.408329e-02 479.0875)">
	<stop  offset="0" style="stop-color:#021B79"/>
	<stop  offset="0.5363" style="stop-color:#187DE5"/>
	<stop  offset="1" style="stop-color:#0575E6"/>
</linearGradient>
<path class="st0" d="M349.5,253.6c26.3-27.5,41.4-63.9,42.3-101.9C392.2,85,348.7,26,285,6.5c-14-4-28.4-6.2-42.9-6.4
	c-0.7,0-1.4-0.1-2.2-0.1h-0.1c-0.5,0-1.1,0.1-1.6,0.1C154.9,0.9,87.8,68.7,87.8,152c-0.6,23,5,45.8,16.1,65.9
	c8.1,14.6,18.3,28,30.3,39.7l11.4,11.4c19.4,19.3,30.3,45.6,30.2,73v1.9c0,0.4,0.1,0.7,0.2,1.1c0,0.3,0,0.5,0,0.8l15.8,63.1v63
	c0,4.4,3.6,8,8,8h80c4.4,0,8-3.6,8-8v-63l15.8-63c0-0.3,0-0.5,0-0.8c0.1-0.4,0.2-0.8,0.2-1.1v-1.9c-0.1-27.4,10.8-53.7,30.3-73
	L349.5,253.6z M338.2,242.3l-1.7,1.7h-34.1c7.7-19.3,12.8-39.4,15.2-60h53.3C365,205.8,353.7,225.9,338.2,242.3z M273.6,400h-9.8
	v-32c0-4.4-3.6-8-8-8h-32c-4.4,0-8,3.6-8,8v32h-9.7l-12-48h91.5L273.6,400z M247.8,400h-16v-24h16V400z M183.1,212.1
	c-2.5-9.2-4.4-18.6-5.5-28.1h54.2v60h-36.9C190.1,233.7,186.1,223,183.1,212.1z M175.8,152c0-14.3,1.1-28.6,3.3-42.7h52.7V168h-55.6
	C176,162.9,175.8,157.6,175.8,152z M174.3,64c-3.5,9.5-6.3,19.3-8.4,29.3h-48.8c5-10.5,11.4-20.4,19-29.3H174.3z M191.4,64h40.4
	v29.3h-49.5C184.6,83.3,187.6,73.5,191.4,64z M344.1,64c7.4,8.9,13.6,18.8,18.5,29.3h-48.7c-2.1-9.9-4.8-19.7-8.2-29.3H344.1z
	 M297.4,93.3h-49.5V64h40.6C292.1,73.5,295.1,83.3,297.4,93.3z M303.8,151.7c0,5.3-0.3,10.8-0.7,16.3h-55.3v-58.7h52.6
	C302.7,123.3,303.8,137.5,303.8,151.7z M247.8,48V17.2c3.3,0.9,6.5,2.3,9.4,4c10.1,6.7,18.3,16,23.7,26.8H247.8z M223.8,20.5
	c2.5-1.5,5.2-2.6,8-3.4V48H199C204.7,36.8,213.3,27.4,223.8,20.5z M231.8,260v76h-12.1c-0.2-26.2-6-52.2-17-76H231.8z M247.8,336
	v-76h29c-11,23.8-16.8,49.7-17,76H247.8z M247.8,244v-60h53.6c-2.5,20.7-8.1,40.9-16.6,60H247.8z M374.4,168h-55.2
	c0.4-5.5,0.6-11,0.6-16.3c0-14.2-1-28.4-3.1-42.4h52.3c4.4,13.7,6.7,28,6.8,42.4C375.8,157.2,375.3,162.6,374.4,168z M328.5,48H299
	c-4.2-9-9.5-17.5-15.9-25.2C299.8,28,315.2,36.6,328.5,48z M197,23c-6.3,7.7-11.7,16.1-15.9,25h-28.9c2-1.6,3.9-3.2,6-4.8
	C170,34.4,183.1,27.5,197,23z M110.7,109.3H163c-2.1,14.1-3.2,28.4-3.2,42.7c0,5.6,0.1,10.9,0.4,16h-55.6c-0.6-5.3-0.8-10.7-0.8-16
	C103.8,137.5,106.1,123.1,110.7,109.3z M118,210.4c-4.6-8.3-8.1-17.2-10.5-26.4h53.9c1.2,10.9,3.3,21.7,6.2,32.2
	c2.6,9.5,5.8,18.7,9.7,27.8h-34.1C133.4,234,124.9,222.7,118,210.4z M159,260h25.9l3.5,7c9.9,21.7,15.1,45.2,15.3,69h-12
	C190.3,307.5,178.7,280.5,159,260z M271.8,464h-64v-48h64V464z M288,336h-12c0.2-23.8,5.4-47.3,15.3-69l3.5-7h25.9
	C301,280.6,289.4,307.5,288,336z M447,302.6c-3.8-2.9-8.3-4.8-13-5.7c-7.1-11.5-20.1-18-33.6-16.8c-13.5,1.3-25.1,10.2-29.8,22.8
	c-3.4-0.9-6.8-1.4-10.3-1.4c-22.8,0-41.2,18.4-41.2,41.2s18.4,41.2,41.2,41.2h78.3c22.8,0,41.3-18.4,41.3-41.2
	C479.9,323.3,466.1,306.5,447,302.6z M438.5,368h-78.3c-10.6,0.1-20.1-6.5-23.8-16.4c-3.7-9.9-0.8-21.1,7.3-28
	c8.1-6.9,19.6-8,28.8-2.7c2.4,1.3,5.3,1.3,7.7,0c2.4-1.3,4-3.8,4.1-6.6c0.5-9,7.1-16.5,16-18.1c8.9-1.6,17.7,3.1,21.3,11.3
	c1.2,2.8,4,4.7,7.1,4.8c3.5,0.1,6.9,1.4,9.6,3.8c1.1,1,2.5,1.7,4,1.9c12.3,1.8,21.5,12.3,21.5,24.7C463.7,356.7,452.4,368,438.5,368
	z M128,398.6c-3.8-2.9-8.3-4.8-13-5.7c-7.1-11.5-20.1-18-33.6-16.8c-13.5,1.3-25.1,10.2-29.8,22.8c-3.4-0.9-6.8-1.4-10.3-1.4
	C18.4,397.6,0,416.1,0,438.8S18.4,480,41.2,480h78.3c22.8,0,41.3-18.4,41.3-41.2C160.9,419.3,147.1,402.5,128,398.6z M119.5,464
	H41.2c-10.6,0.1-20.1-6.5-23.8-16.4s-0.8-21.1,7.3-28c8.1-6.9,19.6-7.9,28.8-2.7c2.4,1.3,5.3,1.3,7.7,0c2.4-1.3,4-3.8,4.1-6.6
	c0.5-9,7.1-16.5,16-18.1c8.9-1.6,17.7,3.1,21.3,11.3c1.2,2.8,4,4.7,7.1,4.8c3.5,0.1,6.9,1.4,9.6,3.8c1.1,1,2.5,1.7,4,1.9
	c12.3,1.8,21.5,12.3,21.5,24.8C144.7,452.8,133.4,464,119.5,464z M18.2,285.6c-3.1-3.1-3.1-8.2,0-11.3l3.4-3.4c7-7,18-8.1,26.3-2.6
	c8.3-5.5,19.3-4.4,26.3,2.6l3.4,3.4c3,3.1,3,8.1-0.1,11.2c-3.1,3.1-8.1,3.1-11.2,0.1l-3.4-3.4c-1.1-1.1-2.7-1.6-4.2-1.4
	c-1.6,0.2-2.9,1.2-3.6,2.6c-1.4,2.7-4.1,4.4-7.2,4.4c-3,0-5.8-1.7-7.2-4.4c-0.7-1.4-2-2.4-3.6-2.6c-1.6-0.2-3.1,0.3-4.2,1.4
	l-3.4,3.4C26.4,288.8,21.3,288.8,18.2,285.6z M402.2,68.8c-3.1-3.1-3.1-8.2,0-11.3l3.4-3.4c4.8-4.7,11.5-6.9,18.1-5.9
	c2.9,0.5,5.7,1.6,8.2,3.2c2.5-1.6,5.3-2.7,8.2-3.2c6.6-1.1,13.4,1.1,18.1,5.9l3.3,3.4c3.1,3.1,3.1,8.2,0,11.3
	c-3.1,3.1-8.2,3.1-11.3,0l-3.4-3.4c-1.1-1.1-2.7-1.6-4.2-1.4c-1.6,0.3-2.9,1.2-3.6,2.6c-1.5,2.5-4.2,4.1-7.2,4.1s-5.7-1.5-7.2-4.1
	c-0.7-1.4-2-2.4-3.6-2.6c-1.6-0.2-3.1,0.3-4.2,1.4l-3.4,3.4C410.3,71.9,405.3,71.9,402.2,68.8L402.2,68.8z"/>
</svg>
