<?xml version="1.0" encoding="utf-8"?>
<!-- Generator: Adobe Illustrator 22.1.0, SVG Export Plug-In . SVG Version: 6.00 Build 0)  -->
<svg version="1.1" id="Layer_1" xmlns="http://www.w3.org/2000/svg" xmlns:xlink="http://www.w3.org/1999/xlink" x="0px" y="0px"
	 viewBox="0 0 340.6 511" style="enable-background:new 0 0 340.6 511;" xml:space="preserve">
<style type="text/css">
	.st0{fill:url(#SVGID_1_);}
</style>
<linearGradient id="SVGID_1_" gradientUnits="userSpaceOnUse" x1="85.7949" y1="-178.2588" x2="473.2612" y2="209.2075" gradientTransform="matrix(0.9999 0 0 0.9999 -84.3621 264.8652)">
	<stop  offset="0" style="stop-color:#021B79"/>
	<stop  offset="0.5363" style="stop-color:#187DE5"/>
	<stop  offset="1" style="stop-color:#0575E6"/>
</linearGradient>
<path class="st0" d="M340.6,112.5V25c-0.3-14.1-12-25.3-26.1-25c-10.7,0.2-20.1,7-23.6,17.1H49.6C45,3.8,30.4-3.2,17.1,1.4
	C7,5,0.2,14.4,0,25v87.4c0,50.7,23.1,98.6,62.8,130.2c3.6,3,9,2.4,12-1.2c3-3.6,2.4-9-1.2-12c0,0,0,0-0.1-0.1
	C37.8,201,17.1,158,17,112.5V25c0-4.7,3.8-8.5,8.5-8.5s8.5,3.8,8.5,8.5v87.4c0.2,47.9,25.7,92.1,67,116.3c4,2.5,9.2,1.3,11.7-2.7
	c2.5-4,1.3-9.2-2.7-11.7c-0.1-0.1-0.3-0.2-0.4-0.3c-4.9-2.9-9.6-6.1-14-9.7h149.2c-21.2,16.9-47.5,26.1-74.6,26.1
	C76.9,230,0.7,305.2,0,398.5V486c0.3,14.1,12,25.3,26.1,25c10.7-0.2,20.1-7,23.6-17.1h241.3c4.7,13.3,19.3,20.3,32.6,15.6
	c10.1-3.5,16.9-12.9,17.1-23.6v-87.4c-0.2-46.5-19.7-90.9-53.8-122.5c-3.5-3.2-8.8-3-12,0.5c-3.2,3.4-3,8.8,0.5,12
	c30.9,28.2,48.4,68.1,48.4,110V486c0,4.7-3.8,8.5-8.5,8.5c-4.7,0-8.5-3.8-8.5-8.5v-87.4c0.1-42.2-19.7-81.9-53.5-107.3
	c-3.8-2.8-9.1-2.1-12,1.7c-2.8,3.8-2.1,9.1,1.7,12c0.7,0.5,1.3,1.2,2,1.7H95.7c21.2-16.9,47.5-26.1,74.6-26.1
	C263.7,281,339.9,205.8,340.6,112.5z M262.3,187.4H78.4c-6.5-7.8-11.9-16.4-16.2-25.5h216.2C274.2,171,268.8,179.6,262.3,187.4z
	 M51.1,102.2V76.7h238.4v25.5H51.1z M289.5,59.7H51.1V34.1h238.4V59.7z M284.8,144.8h-229c-2.4-8.3-3.9-16.9-4.4-25.5h237.8
	C288.7,127.9,287.2,136.5,284.8,144.8z M34.1,486c0,4.7-3.8,8.5-8.5,8.5S17,490.7,17,486v-87.4c0.7-84,69.3-151.5,153.3-151
	c74.9,0.2,135.8-60.2,136.2-135.1V25c0-4.7,3.8-8.5,8.5-8.5c4.7,0,8.5,3.8,8.5,8.5v87.4c-0.7,84-69.3,151.5-153.3,151
	c-74.9-0.2-135.8,60.2-136.2,135.1V486z M278.5,349.2H62.2c4.2-9.2,9.7-17.8,16.1-25.5h184.1C268.8,331.4,274.2,340,278.5,349.2z
	 M55.7,366.2h229c2.4,8.3,3.8,16.9,4.3,25.5H51.4C51.9,383.1,53.4,374.5,55.7,366.2z M51.1,408.8h238.4v25.5H51.1V408.8z
	 M51.1,451.3h238.4v25.5H51.1V451.3z"/>
</svg>
