<?xml version="1.0" encoding="utf-8"?>
<!-- Generator: Adobe Illustrator 22.1.0, SVG Export Plug-In . SVG Version: 6.00 Build 0)  -->
<svg version="1.1" id="Layer_1" xmlns="http://www.w3.org/2000/svg" xmlns:xlink="http://www.w3.org/1999/xlink" x="0px" y="0px"
	 viewBox="0 0 512 512" style="enable-background:new 0 0 512 512;" xml:space="preserve">
<style type="text/css">
	.st0{fill:#FFFFFF;}
</style>
<path class="st0" d="M503.5,17.1c4.7,0,8.5-3.8,8.5-8.5c0-4.7-3.8-8.5-8.5-8.5H8.5C3.8,0,0,3.8,0,8.5c0,4.7,3.8,8.5,8.5,8.5h17.1V40
	L3.9,54c-4,2.6-5.1,7.8-2.6,11.8L29.2,109c-4.7,12.5-3.2,26.5,4,37.8l4.6,7.2c2.6,4,7.8,5.1,11.8,2.6l57.4-37
	c4-2.6,5.1-7.8,2.6-11.8l-4.6-7.2c-7.3-11.2-19.4-18.4-32.7-19.3L44.4,38.1c-0.5-0.7-1.1-1.3-1.7-1.8V17.1h426.7v19.2
	c-0.7,0.5-1.2,1.1-1.7,1.8l-27.8,43.2c-13.3,0.9-25.5,8.1-32.8,19.3l-4.6,7.2c-2.6,4-1.4,9.2,2.6,11.8l57.4,37
	c4,2.6,9.2,1.4,11.8-2.6l4.6-7.2c7.2-11.3,8.7-25.3,4-37.8l27.8-43.2c2.6-4,1.4-9.2-2.6-11.8l-21.7-14V17.1H503.5z M90.6,109.8
	l-43.1,27.7c-3.5-5.4-4.7-12-3.5-18.3c0.5-0.2,1-0.4,1.4-0.6l28.7-18.5c0.4-0.3,0.8-0.7,1.1-1.1C81.6,100.5,87.1,104.3,90.6,109.8z
	 M57.8,90.3l-14.4,9.2L20.3,63.7l14.4-9.3L57.8,90.3z M464.4,137.5l-43.1-27.7c3.5-5.5,9-9.3,15.4-10.8c0.3,0.4,0.7,0.7,1.1,1
	l28.7,18.5c0.5,0.3,0.9,0.5,1.4,0.6C469.2,125.5,467.9,132.1,464.4,137.5z M468.6,99.6l-14.4-9.2l23.1-35.8l14.4,9.2L468.6,99.6z"/>
<path class="st0" d="M251.7,392.5c-108.1,0-217.6,20.5-217.6,59.7c0,39.3,109.5,59.7,217.6,59.7s217.6-20.5,217.6-59.7
	C469.3,413,359.9,392.5,251.7,392.5z M251.7,494.9c-122.4,0-200.5-25.3-200.5-42.7c0-17.4,78.1-42.7,200.5-42.7
	c122.4,0,200.5,25.3,200.5,42.7C452.3,469.7,374.1,494.9,251.7,494.9z"/>
<path class="st0" d="M59.7,409.6h0.3c4.7-0.2,8.4-4.1,8.2-8.9c0,0,0,0,0,0l-8.5-221.9c-0.1-4.6-3.8-8.3-8.4-8.2c-0.1,0-0.3,0-0.4,0
	c-4.7,0.2-8.4,4.1-8.2,8.9v0l8.5,221.9C51.4,406,55.2,409.6,59.7,409.6z"/>
<path class="st0" d="M87.5,389.6c3.1,3.5,8.5,3.9,12,0.8c0,0,0,0,0,0L254,254.1l149.9,136.2c3.5,3.2,8.9,2.9,12.1-0.6
	c3.2-3.5,2.9-8.9-0.6-12.1l-148.5-135l122.8-108.3c3.5-3.1,3.9-8.5,0.8-12s-8.5-3.9-12.1-0.8L254.2,231.2L133.8,121.7
	c-3.5-3.2-8.9-2.9-12.1,0.6c-3.2,3.5-2.9,8.9,0.6,12.1l119,108.2L88.2,377.6C84.7,380.7,84.4,386.1,87.5,389.6z"/>
<path class="st0" d="M443.7,401.1c4.5,0,8.2-3.4,8.5-7.9l17.1-213.3c0.4-4.7-3.1-8.8-7.9-9.2c-4.7-0.4-8.8,3.1-9.2,7.8l-17.1,213.3
	c-0.4,4.7,3.1,8.8,7.8,9.2c0,0,0,0,0.1,0H443.7z"/>
<path class="st0" d="M281.6,375.5c4.7,0,8.5-3.8,8.5-8.5v-8.5h8.5c4.7,0,8.5-3.8,8.5-8.5c0-4.7-3.8-8.5-8.5-8.5h-8.5v-8.5
	c0-4.7-3.8-8.5-8.5-8.5c-4.7,0-8.5,3.8-8.5,8.5v8.5h-8.5c-4.7,0-8.5,3.8-8.5,8.5c0,4.7,3.8,8.5,8.5,8.5h8.5v8.5
	C273.1,371.6,276.9,375.5,281.6,375.5z"/>
<path class="st0" d="M409.6,204.8c-4.7,0-8.5,3.8-8.5,8.5v8.5h-8.5c-4.7,0-8.5,3.8-8.5,8.5s3.8,8.5,8.5,8.5h8.5v8.5
	c0,4.7,3.8,8.5,8.5,8.5s8.5-3.8,8.5-8.5v-8.5h8.5c4.7,0,8.5-3.8,8.5-8.5s-3.8-8.5-8.5-8.5h-8.5v-8.5
	C418.1,208.6,414.3,204.8,409.6,204.8z"/>
<path class="st0" d="M162.1,213.3c-4.7,0-8.5,3.8-8.5,8.5v8.5h-8.5c-4.7,0-8.5,3.8-8.5,8.5c0,4.7,3.8,8.5,8.5,8.5h8.5v8.5
	c0,4.7,3.8,8.5,8.5,8.5s8.5-3.8,8.5-8.5v-8.5h8.5c4.7,0,8.5-3.8,8.5-8.5c0-4.7-3.8-8.5-8.5-8.5h-8.5v-8.5
	C170.7,217.1,166.9,213.3,162.1,213.3z"/>
<path class="st0" d="M21.3,384c-7.1,0-12.8,5.7-12.8,12.8c0,7.1,5.7,12.8,12.8,12.8c7.1,0,12.8-5.7,12.8-12.8
	C34.1,389.7,28.4,384,21.3,384z M21.3,401.1c-2.4,0-4.3-1.9-4.3-4.3c0-2.4,1.9-4.3,4.3-4.3c2.4,0,4.3,1.9,4.3,4.3
	C25.6,399.1,23.7,401.1,21.3,401.1z"/>
<path class="st0" d="M482.1,349.9c-7.1,0-12.8,5.7-12.8,12.8c0,7.1,5.7,12.8,12.8,12.8s12.8-5.7,12.8-12.8
	C494.9,355.6,489.2,349.9,482.1,349.9z M482.1,366.9c-2.4,0-4.3-1.9-4.3-4.3s1.9-4.3,4.3-4.3s4.3,1.9,4.3,4.3
	C486.4,365,484.5,366.9,482.1,366.9z"/>
<path class="st0" d="M230.4,106.7c0-7.1-5.7-12.8-12.8-12.8s-12.8,5.7-12.8,12.8s5.7,12.8,12.8,12.8S230.4,113.7,230.4,106.7z
	 M213.3,106.7c0-2.4,1.9-4.3,4.3-4.3s4.3,1.9,4.3,4.3s-1.9,4.3-4.3,4.3S213.3,109,213.3,106.7z"/>
</svg>
