<?xml version="1.0" encoding="utf-8"?>
<!-- Generator: Adobe Illustrator 22.1.0, SVG Export Plug-In . SVG Version: 6.00 Build 0)  -->
<svg version="1.1" id="Layer_1" xmlns="http://www.w3.org/2000/svg" xmlns:xlink="http://www.w3.org/1999/xlink" x="0px" y="0px"
	 viewBox="0 0 53.1 53.3" style="enable-background:new 0 0 53.1 53.3;" xml:space="preserve">
<style type="text/css">
	.st0{fill:#2A2866;}
</style>
<path class="st0" d="M52.6,29.2l-9.7-8.9c-0.5-0.5-0.9-0.6-1.4-0.8c-0.5,0-0.8,0.2-1.1,0.5s-0.5,0.8-0.6,1.4c0,0.6,0.2,1.1,0.6,1.6
	l4.4,4.4c2.2,2.2,2.2,5.8,0,8l-8.5,8.5c-1.6,1.6-4.2,0.8-4.9-1.4L22.1,2c-0.2-0.5-0.3-0.9-0.6-1.3C21,0.3,20.6,0.2,20.1,0
	c-0.6,0-1.1,0.2-1.4,0.5L0.9,18.2C0.3,18.8,0,19.5,0,20.1c0,0.6,0.2,1.1,0.6,1.6l8.6,8.6c0.5,0.5,0.9,0.6,1.4,0.6
	c0.5,0,0.9-0.3,1.4-0.6c0.3-0.3,0.5-0.8,0.6-1.1c0-0.5-0.2-0.8-0.5-1.3l-4.1-4.5c-2-2.2-1.9-5.6,0.2-7.8l6.7-6.7
	c1.6-1.6,4.4-0.8,4.9,1.4l8.8,40.3c0,0.2,0.2,0.5,0.3,1.1s0.5,1.1,0.8,1.4c0.6,0.6,1.4,0.3,2.4-0.6l20.2-20.2
	c0.5-0.5,0.6-0.9,0.6-1.4C53.2,30.1,53,29.6,52.6,29.2z"/>
</svg>
