<?xml version="1.0" encoding="utf-8"?>
<!-- Generator: Adobe Illustrator 22.1.0, SVG Export Plug-In . SVG Version: 6.00 Build 0)  -->
<svg version="1.1" id="Layer_1" xmlns="http://www.w3.org/2000/svg" xmlns:xlink="http://www.w3.org/1999/xlink" x="0px" y="0px"
	 viewBox="0 0 448 399.7" style="enable-background:new 0 0 448 399.7;" xml:space="preserve">
<style type="text/css">
	.st0{fill:url(#SVGID_1_);}
	.st1{fill:url(#SVGID_2_);}
	.st2{fill:url(#SVGID_3_);}
	.st3{fill:url(#SVGID_4_);}
	.st4{fill:url(#SVGID_5_);}
	.st5{fill:url(#SVGID_6_);}
</style>
<linearGradient id="SVGID_1_" gradientUnits="userSpaceOnUse" x1="101.2739" y1="342.9653" x2="433.4019" y2="10.8372" gradientTransform="matrix(1 0 0 -1 4.468529e-03 399.0903)">
	<stop  offset="0" style="stop-color:#021B79"/>
	<stop  offset="0.5363" style="stop-color:#187DE5"/>
	<stop  offset="1" style="stop-color:#0575E6"/>
</linearGradient>
<path class="st0" d="M13,309.4l1.9,6.5c13.8,49.6,59,83.8,110.4,83.8s96.6-34.3,110.4-83.8l1.9-6.5c2.4-8.1,3.9-16.4,4.5-24.9
	l0.9-15.6c22.7,17.8,50.6,27.5,79.4,27.7c51.4-0.1,96.5-34.3,110.4-83.8l1.9-6.5c2.4-8.1,3.9-16.4,4.5-24.9L448,39.7
	c0.2-3.5-1.8-6.7-5.1-7.9l-42.2-16.6C347.6-5.8,288.3-5,235.8,17.5l-33.7,14.3c-3.1,1.3-5.1,4.5-4.9,7.8l4.7,78.1
	c-52.7-20.4-111.4-19.4-163.3,2.9L4.9,135c-3.1,1.3-5.1,4.5-4.8,7.8l8.5,141.8C9.2,293,10.7,301.3,13,309.4z M242,32.2
	c48.7-20.8,103.6-21.6,152.8-2.2l36.8,14.5l-8.1,135.8c-0.5,7.3-1.9,14.4-3.9,21.4l-1.9,6.5c-11.9,42.7-50.8,72.2-95.1,72.3
	c-28.6-0.2-56.1-11.3-76.9-30.9c-0.4-0.4-0.8-0.9-1.2-1.3l0.6-9.6l0.7-11.1c0.4,0.2,0.8,0.3,1.2,0.4c4,0.5,7.7-1.9,8.8-5.8
	c7.9-28.2,37.9-53,64.3-53s56.4,24.8,64.3,53c1,3.5,4.1,5.8,7.7,5.8c0.4,0,0.7,0,1.1-0.1c4-0.6,6.9-4,6.9-8v-24.5
	c0.4-44.6-35.4-81-80-81.5c-29.3,0.1-56.2,16.3-70,42.2l0.8-13.5c0.2-3.5-1.8-6.7-5.1-7.9l-27.4-10.7l-4.8-79.8L242,32.2z
	 M256.6,186.9c3.6-32.3,30.9-56.8,63.4-56.8c32.5,0,59.9,24.5,63.4,56.8c-15.2-20-38.4-32.3-63.4-33.6
	C294.9,154.7,271.7,167,256.6,186.9z M44.8,135.4c48.7-20.8,103.6-21.6,152.8-2.2l36.8,14.5l-8.1,135.8c-0.5,7.3-1.9,14.4-3.9,21.4
	l-1.9,6.5c-11.8,42.7-50.7,72.3-95.1,72.3s-83.3-29.6-95.1-72.3l-1.9-6.5c-2-6.9-3.3-14.1-3.9-21.3l-8.2-136.1L44.8,135.4z"/>
<linearGradient id="SVGID_2_" gradientUnits="userSpaceOnUse" x1="63.4893" y1="305.1888" x2="395.6254" y2="-26.9473" gradientTransform="matrix(1 0 0 -1 4.468529e-03 399.0903)">
	<stop  offset="0" style="stop-color:#021B79"/>
	<stop  offset="0.5363" style="stop-color:#187DE5"/>
	<stop  offset="1" style="stop-color:#0575E6"/>
</linearGradient>
<path class="st1" d="M155.4,212.6c4.5-7.8,12.6-12.8,21.6-13.3c9,0.6,17.1,5.6,21.6,13.3c2.5,3.6,7.5,4.5,11.1,2
	c3.6-2.5,4.5-7.5,2-11.1c-7.5-12.2-20.5-19.8-34.8-20.2c-14.2,0.5-27.3,8.1-34.7,20.2c-1.7,2.3-2,5.4-0.8,8.1
	c1.2,2.6,3.8,4.4,6.7,4.6C151.1,216.4,153.8,215,155.4,212.6L155.4,212.6z"/>
<linearGradient id="SVGID_3_" gradientUnits="userSpaceOnUse" x1="11.8414" y1="253.5329" x2="343.9694" y2="-78.5951" gradientTransform="matrix(1 0 0 -1 4.468529e-03 399.0903)">
	<stop  offset="0" style="stop-color:#021B79"/>
	<stop  offset="0.5363" style="stop-color:#187DE5"/>
	<stop  offset="1" style="stop-color:#0575E6"/>
</linearGradient>
<path class="st2" d="M52.1,212.6c4.5-7.8,12.6-12.8,21.6-13.3c9,0.6,17.1,5.6,21.6,13.3c2.5,3.6,7.5,4.5,11.1,2
	c3.6-2.5,4.5-7.5,2-11.1c-7.5-12.2-20.5-19.8-34.8-20.2c-14.2,0.5-27.3,8.1-34.7,20.2c-1.7,2.3-2,5.4-0.8,8.1
	c1.2,2.6,3.8,4.4,6.7,4.6C47.8,216.4,50.5,215,52.1,212.6L52.1,212.6z"/>
<linearGradient id="SVGID_4_" gradientUnits="userSpaceOnUse" x1="6.6343" y1="248.3257" x2="338.7623" y2="-83.8023" gradientTransform="matrix(1 0 0 -1 4.468529e-03 399.0903)">
	<stop  offset="0" style="stop-color:#021B79"/>
	<stop  offset="0.5363" style="stop-color:#187DE5"/>
	<stop  offset="1" style="stop-color:#0575E6"/>
</linearGradient>
<path class="st3" d="M63.7,242.3c-1.1-3.9-4.8-6.3-8.8-5.8c-4,0.5-6.9,3.9-6.9,7.9V269c-0.3,44.6,35.4,81,80,81.5
	c44.6-0.5,80.3-36.9,80-81.5v-24.5c0-4-2.9-7.4-6.9-7.9c-4-0.5-7.7,1.9-8.8,5.8c-7.9,28.2-37.9,53-64.3,53
	C101.6,295.3,71.6,270.5,63.7,242.3z M191.4,277.7c-3.6,32.3-30.9,56.8-63.4,56.8c-32.5,0-59.9-24.5-63.4-56.8
	c15.2,20,38.4,32.2,63.4,33.6C153,309.9,176.2,297.6,191.4,277.7z"/>
<linearGradient id="SVGID_5_" gradientUnits="userSpaceOnUse" x1="225.4784" y1="467.1698" x2="557.6064" y2="135.0418" gradientTransform="matrix(1 0 0 -1 4.468529e-03 399.0903)">
	<stop  offset="0" style="stop-color:#021B79"/>
	<stop  offset="0.5363" style="stop-color:#187DE5"/>
	<stop  offset="1" style="stop-color:#0575E6"/>
</linearGradient>
<path class="st4" d="M374.2,104.9c14.2-0.5,27.3-8.1,34.8-20.2c1.7-2.3,2-5.4,0.8-8.1c-1.2-2.6-3.8-4.4-6.7-4.6
	c-2.9-0.2-5.7,1.2-7.3,3.6c-4.1,8.2-12.5,13.3-21.6,13.3c-9.1,0-17.5-5.2-21.6-13.3c-2.5-3.6-7.5-4.5-11.1-2
	c-3.6,2.5-4.5,7.5-2,11.1C346.9,96.8,360,104.4,374.2,104.9z"/>
<linearGradient id="SVGID_6_" gradientUnits="userSpaceOnUse" x1="173.8229" y1="415.5223" x2="505.959" y2="83.3863" gradientTransform="matrix(1 0 0 -1 4.468529e-03 399.0903)">
	<stop  offset="0" style="stop-color:#021B79"/>
	<stop  offset="0.5363" style="stop-color:#187DE5"/>
	<stop  offset="1" style="stop-color:#0575E6"/>
</linearGradient>
<path class="st5" d="M270.9,104.9c14.2-0.5,27.3-8.1,34.7-20.2c1.7-2.3,2-5.4,0.8-8.1c-1.2-2.6-3.8-4.4-6.7-4.6
	c-2.9-0.2-5.7,1.2-7.3,3.6c-4.5,7.8-12.6,12.8-21.6,13.3c-9-0.6-17.1-5.6-21.6-13.3c-2.5-3.6-7.5-4.5-11.1-2
	c-3.6,2.5-4.5,7.5-2,11.1C243.6,96.8,256.7,104.4,270.9,104.9z"/>
</svg>
