<?xml version="1.0" standalone="no"?>
<!DOCTYPE svg PUBLIC "-//W3C//DTD SVG 20010904//EN"
 "http://www.w3.org/TR/2001/REC-SVG-20010904/DTD/svg10.dtd">
<svg version="1.0" xmlns="http://www.w3.org/2000/svg"
 width="700.000000pt" height="700.000000pt" viewBox="0 0 700.000000 700.000000"
 preserveAspectRatio="xMidYMid meet">
<metadata>
Created by potrace 1.11, written by Peter Selinger 2001-2013
</metadata>
<g transform="translate(0.000000,700.000000) scale(0.100000,-0.100000)"
fill="#000000" stroke="none">
<path d="M2570 6991 c-59 -18 -98 -50 -288 -238 -334 -331 -1708 -1692 -1966
-1948 -285 -285 -310 -321 -310 -445 0 -141 -22 -115 646 -781 346 -344 610
-599 633 -611 62 -33 145 -30 219 7 75 38 103 67 133 135 50 110 15 172 -252
456 -11 11 -60 65 -110 120 -49 54 -117 128 -150 164 -99 109 -117 131 -157
197 -116 192 -133 443 -44 662 54 133 96 181 598 681 564 562 542 545 713 545
92 0 105 -3 166 -32 71 -35 144 -105 177 -169 20 -39 74 -255 108 -434 3 -14
13 -63 24 -110 16 -70 37 -169 55 -250 2 -8 24 -109 50 -225 25 -115 48 -220
51 -233 2 -13 30 -136 60 -275 31 -139 57 -259 59 -268 2 -9 13 -61 24 -115
19 -87 33 -149 71 -319 5 -22 41 -184 79 -360 39 -176 95 -434 126 -574 30
-139 58 -270 61 -290 3 -20 8 -39 10 -43 2 -3 14 -51 25 -105 12 -54 25 -116
30 -138 4 -22 51 -236 104 -475 52 -239 97 -444 99 -455 3 -11 27 -123 55
-250 28 -126 54 -243 57 -258 22 -126 88 -375 113 -426 9 -18 36 -55 59 -82
l44 -49 72 0 c65 0 78 3 121 32 27 18 77 58 110 89 178 167 2679 2668 2697
2697 11 19 23 53 25 75 3 23 9 58 14 77 26 101 6 149 -112 255 -24 22 -96 87
-159 145 -63 58 -120 110 -126 115 -6 6 -53 48 -104 95 -51 47 -98 90 -104 95
-66 60 -242 221 -246 225 -3 3 -59 54 -125 114 -66 60 -163 149 -215 197 -52
48 -113 104 -135 123 -48 44 -144 96 -188 101 -74 9 -159 -60 -196 -160 -30
-80 -27 -144 9 -219 25 -52 74 -106 345 -376 174 -173 332 -337 352 -363 121
-163 172 -385 133 -577 -6 -30 -13 -60 -14 -67 -1 -7 -5 -16 -9 -19 -4 -4 -7
-14 -7 -23 0 -25 -67 -151 -110 -206 -50 -64 -1169 -1179 -1232 -1227 -217
-165 -536 -32 -605 252 -18 76 -124 530 -129 555 -2 11 -6 29 -8 40 -2 11 -15
67 -29 125 -23 96 -232 1003 -242 1046 -2 11 -13 57 -24 104 -11 47 -52 225
-91 395 -39 171 -82 357 -96 415 -57 247 -163 707 -168 730 -2 8 -6 26 -9 40
-8 28 -105 450 -111 483 -3 12 -21 92 -41 177 -20 85 -49 211 -65 280 -205
895 -224 970 -267 1038 -25 38 -40 49 -113 84 -67 32 -127 42 -170 29z"/>
</g>
</svg>
